<?xml version="1.0" encoding="UTF-8" standalone="no"?>
<!DOCTYPE svg PUBLIC "-//W3C//DTD SVG 1.1//EN"
 "http://www.w3.org/Graphics/SVG/1.1/DTD/svg11.dtd">
<!-- Generated by graphviz version 2.26.3 (20100126.1600)
 -->
<!-- Title: G Pages: 1 -->
<svg width="334pt" height="854pt"
 viewBox="0.00 0.00 334.00 854.00" xmlns="http://www.w3.org/2000/svg" xmlns:xlink="http://www.w3.org/1999/xlink">
<g id="graph1" class="graph" transform="scale(1 1) rotate(0) translate(4 850)">
<title>G</title>
<polygon fill="white" stroke="white" points="-4,5 -4,-850 331,-850 331,5 -4,5"/>
<g id="graph2" class="cluster"><title>cluster_global</title>
<polyline fill="none" stroke="gray" points="202,-8 306,-8 "/>
<path fill="none" stroke="gray" d="M306,-8C312,-8 318,-14 318,-20"/>
<polyline fill="none" stroke="gray" points="318,-20 318,-826 "/>
<path fill="none" stroke="gray" d="M318,-826C318,-832 312,-838 306,-838"/>
<polyline fill="none" stroke="gray" points="306,-838 202,-838 "/>
<path fill="none" stroke="gray" d="M202,-838C196,-838 190,-832 190,-826"/>
<polyline fill="none" stroke="gray" points="190,-826 190,-20 "/>
<path fill="none" stroke="gray" d="M190,-20C190,-14 196,-8 202,-8"/>
<text text-anchor="middle" x="254" y="-824.1" font-family="Times Roman,serif" font-size="11.00" fill="gray">global</text>
</g>
<!-- \\tableAction -->
<g id="node2" class="node"><title>\\tableAction</title>
<a xlink:href="includes.classes.class.tableaction.html" xlink:title="tableAction" target="_parent">
<polygon fill="none" stroke="black" points="299,-808 209,-808 209,-772 299,-772 299,-808"/>
<text text-anchor="middle" x="254" y="-787.1" font-family="Courier,monospace" font-size="11.00">tableAction</text>
</a>
</g>
<!-- \\Result -->
<g id="node3" class="node"><title>\\Result</title>
<a xlink:href="includes.classes.class.result.html" xlink:title="Result" target="_parent">
<polygon fill="none" stroke="black" points="282,-754 226,-754 226,-718 282,-718 282,-754"/>
<text text-anchor="middle" x="254" y="-733.1" font-family="Courier,monospace" font-size="11.00">Result</text>
</a>
</g>
<!-- \\Cipher -->
<g id="node4" class="node"><title>\\Cipher</title>
<a xlink:href="includes.classes.class.cipher.html" xlink:title="Cipher" target="_parent">
<polygon fill="none" stroke="black" points="282,-700 226,-700 226,-664 282,-664 282,-700"/>
<text text-anchor="middle" x="254" y="-679.1" font-family="Courier,monospace" font-size="11.00">Cipher</text>
</a>
</g>
<!-- \\SSH -->
<g id="node5" class="node"><title>\\SSH</title>
<a xlink:href="includes.classes.class.ssh.html" xlink:title="SSH" target="_parent">
<polygon fill="none" stroke="black" points="281,-646 227,-646 227,-610 281,-610 281,-646"/>
<text text-anchor="middle" x="254" y="-625.1" font-family="Courier,monospace" font-size="11.00">SSH</text>
</a>
</g>
<!-- \\Process -->
<g id="node6" class="node"><title>\\Process</title>
<a xlink:href="includes.classes.module.tools.class.process.html" xlink:title="Process" target="_parent">
<polygon fill="none" stroke="black" points="286,-592 222,-592 222,-556 286,-556 286,-592"/>
<text text-anchor="middle" x="254" y="-571.1" font-family="Courier,monospace" font-size="11.00">Process</text>
</a>
</g>
<!-- \\DBHandler -->
<g id="node7" class="node"><title>\\DBHandler</title>
<a xlink:href="includes.classes.module.mysql.class.dbhandler.html" xlink:title="DBHandler" target="_parent">
<polygon fill="none" stroke="black" points="292,-538 216,-538 216,-502 292,-502 292,-538"/>
<text text-anchor="middle" x="254" y="-517.1" font-family="Courier,monospace" font-size="11.00">DBHandler</text>
</a>
</g>
<!-- \\User -->
<g id="node8" class="node"><title>\\User</title>
<a xlink:href="includes.classes.class.user.html" xlink:title="User" target="_parent">
<polygon fill="none" stroke="black" points="281,-484 227,-484 227,-448 281,-448 281,-484"/>
<text text-anchor="middle" x="254" y="-463.1" font-family="Courier,monospace" font-size="11.00">User</text>
</a>
</g>
<!-- \\Server -->
<g id="node9" class="node"><title>\\Server</title>
<a xlink:href="includes.classes.class.server.html" xlink:title="Server" target="_parent">
<polygon fill="none" stroke="black" points="282,-430 226,-430 226,-394 282,-394 282,-430"/>
<text text-anchor="middle" x="254" y="-409.1" font-family="Courier,monospace" font-size="11.00">Server</text>
</a>
</g>
<!-- \\Debug -->
<g id="node10" class="node"><title>\\Debug</title>
<a xlink:href="includes.classes.class.debug.html" xlink:title="Debug" target="_parent">
<polygon fill="none" stroke="black" points="281,-376 227,-376 227,-340 281,-340 281,-376"/>
<text text-anchor="middle" x="254" y="-355.1" font-family="Courier,monospace" font-size="11.00">Debug</text>
</a>
</g>
<!-- \\Database -->
<g id="node11" class="node"><title>\\Database</title>
<a xlink:href="includes.classes.class.database.html" xlink:title="Database" target="_parent">
<polygon fill="none" stroke="black" points="289,-322 219,-322 219,-286 289,-286 289,-322"/>
<text text-anchor="middle" x="254" y="-301.1" font-family="Courier,monospace" font-size="11.00">Database</text>
</a>
</g>
<!-- \\Cache -->
<g id="node12" class="node"><title>\\Cache</title>
<a xlink:href="includes.classes.class.cache.html" xlink:title="Cache" target="_parent">
<polygon fill="none" stroke="black" points="281,-268 227,-268 227,-232 281,-232 281,-268"/>
<text text-anchor="middle" x="254" y="-247.1" font-family="Courier,monospace" font-size="11.00">Cache</text>
</a>
</g>
<!-- \\Loader -->
<g id="node13" class="node"><title>\\Loader</title>
<a xlink:href="includes.classes.class.loader.html" xlink:title="Loader" target="_parent">
<polygon fill="none" stroke="black" points="282,-214 226,-214 226,-178 282,-178 282,-214"/>
<text text-anchor="middle" x="254" y="-193.1" font-family="Courier,monospace" font-size="11.00">Loader</text>
</a>
</g>
<!-- \\MySQLException -->
<g id="node14" class="node"><title>\\MySQLException</title>
<a xlink:href="includes.classes.class.MySQLException.html" xlink:title="MySQLException" target="_parent">
<polygon fill="none" stroke="black" points="309,-160 199,-160 199,-124 309,-124 309,-160"/>
<text text-anchor="middle" x="254" y="-139.1" font-family="Courier,monospace" font-size="11.00">MySQLException</text>
</a>
</g>
<!-- \\Exception -->
<g id="node18" class="node"><title>\\Exception</title>
<ellipse fill="none" stroke="black" cx="63" cy="-142" rx="62.9325" ry="18.3848"/>
<text text-anchor="middle" x="63" y="-138.4" font-family="Times Roman,serif" font-size="14.00" fill="gray">\Exception</text>
</g>
<!-- \\MySQLException&#45;&gt;\\Exception -->
<g id="edge3" class="edge"><title>\\MySQLException&#45;&gt;\\Exception</title>
<path fill="none" stroke="black" d="M198.498,-142C179,-142 156.786,-142 136.065,-142"/>
<polygon fill="none" stroke="black" points="136.032,-138.5 126.032,-142 136.032,-145.5 136.032,-138.5"/>
</g>
<!-- \\Main -->
<g id="node15" class="node"><title>\\Main</title>
<a xlink:href="includes.classes.class.main.html" xlink:title="Main" target="_parent">
<polygon fill="none" stroke="black" points="281,-106 227,-106 227,-70 281,-70 281,-106"/>
<text text-anchor="middle" x="254" y="-85.1" font-family="Courier,monospace" font-size="11.00">Main</text>
</a>
</g>
<!-- \\MySQL -->
<g id="node16" class="node"><title>\\MySQL</title>
<a xlink:href="includes.classes.class.mysql.html" xlink:title="MySQL" target="_parent">
<polygon fill="none" stroke="black" points="281,-52 227,-52 227,-16 281,-16 281,-52"/>
<text text-anchor="middle" x="254" y="-31.1" font-family="Courier,monospace" font-size="11.00">MySQL</text>
</a>
</g>
</g>
</svg>
